HIERARCHY
ROOT Hips
{
	OFFSET 0.000000 0.000000 0.000000
	CHANNELS 6 Xposition Yposition Zposition Zrotation Yrotation Xrotation 
	JOINT LeftUpLeg_virtual
	{
		OFFSET 0.000000 0.000000 0.000000
		CHANNELS 3 Zrotation Yrotation Xrotation
		JOINT LeftUpLeg
		{
			OFFSET 10.205400 -3.823500 0.155100
			CHANNELS 3 Zrotation Yrotation Xrotation
			JOINT LeftLeg
			{
				OFFSET 0.708757 -12.982077 0.567790
				CHANNELS 3 Zrotation Yrotation Xrotation
				JOINT LeftFoot
				{
					OFFSET -0.708756 -10.717838 -2.184338
					CHANNELS 3 Zrotation Yrotation Xrotation
					JOINT LeftToeBase
					{
						OFFSET 0.108149 -7.191104 7.560241
						CHANNELS 3 Zrotation Yrotation Xrotation
						End Site
						{
							OFFSET 0.000000 0.000000 0.000000
						}
					}
				}
			}
		}
	}
	JOINT RightUpLeg_virtual
	{
		OFFSET 0.000000 0.000000 0.000000
		CHANNELS 3 Zrotation Yrotation Xrotation
		JOINT RightUpLeg
		{
			OFFSET -10.205400 -3.823500 0.005500
			CHANNELS 3 Zrotation Yrotation Xrotation
			JOINT RightLeg
			{
				OFFSET -0.708756 -12.982134 0.610632
				CHANNELS 3 Zrotation Yrotation Xrotation
				JOINT RightFoot
				{
					OFFSET 0.708754 -10.717769 -1.945823
					CHANNELS 3 Zrotation Yrotation Xrotation
					JOINT RightToeBase
					{
						OFFSET -0.108140 -7.191069 7.372968
						CHANNELS 3 Zrotation Yrotation Xrotation
						End Site
						{
							OFFSET 0.000000 0.000000 0.000000
						}
					}
				}
			}
		}
	}
	JOINT Spine_virtual
	{
		OFFSET 0.000000 0.000000 0.000000
		CHANNELS 3 Zrotation Yrotation Xrotation
		JOINT Spine
		{
			OFFSET 0.000000 6.876099 0.125700
			CHANNELS 3 Zrotation Yrotation Xrotation
			JOINT Spine1
			{
				OFFSET 0.000000 8.022060 0.146608
				CHANNELS 3 Zrotation Yrotation Xrotation
				JOINT Spine2
				{
					OFFSET 0.000000 9.168068 0.167552
					CHANNELS 3 Zrotation Yrotation Xrotation
					JOINT Neck_virtual
					{
						OFFSET 0.000000 0.000000 0.000000
						CHANNELS 3 Zrotation Yrotation Xrotation
						JOINT Neck
						{
							OFFSET 0.000000 10.314075 0.188496
							CHANNELS 3 Zrotation Yrotation Xrotation
							JOINT Head
							{
								OFFSET 0.000000 7.643700 -2.377400
								CHANNELS 3 Zrotation Yrotation Xrotation
								End Site
								{
									OFFSET 0.000000 0.000000 0.000000
								}
							}
						}
					}
					JOINT LeftShoulder_virtual
					{
						OFFSET 0.000000 0.000000 0.000000
						CHANNELS 3 Zrotation Yrotation Xrotation
						JOINT LeftShoulder
						{
							OFFSET 4.392200 8.824978 0.174984
							CHANNELS 3 Zrotation Yrotation Xrotation
							JOINT LeftArm
							{
								OFFSET 8.771219 -2.981674 -0.026999
								CHANNELS 3 Zrotation Yrotation Xrotation
								JOINT LeftForeArm
								{
									OFFSET 8.512804 0.000000 -0.000000
									CHANNELS 3 Zrotation Yrotation Xrotation
									JOINT LeftHand
									{
										OFFSET 18.484802 0.000000 -0.000000
										CHANNELS 3 Zrotation Yrotation Xrotation
										End Site
										{
											OFFSET 0.000000 0.000000 0.000000
										}
									}
								}
							}
						}
					}
					JOINT RightShoulder_virtual
					{
						OFFSET 0.000000 0.000000 0.000000
						CHANNELS 3 Zrotation Yrotation Xrotation
						JOINT RightShoulder
						{
							OFFSET -4.392200 8.824993 0.141379
							CHANNELS 3 Zrotation Yrotation Xrotation
							JOINT RightArm
							{
								OFFSET -8.771282 -2.981682 -0.094208
								CHANNELS 3 Zrotation Yrotation Xrotation
								JOINT RightForeArm
								{
									OFFSET -8.494598 0.000000 0.000000
									CHANNELS 3 Zrotation Yrotation Xrotation
									JOINT RightHand
									{
										OFFSET -18.483803 0.000000 0.000001
										CHANNELS 3 Zrotation Yrotation Xrotation
										End Site
										{
											OFFSET 0.000000 0.000000 0.000000
										}
									}
								}
							}
						}
					}
				}
			}
		}
	}
}
MOTION
Frames: 9
Frame Time: 0.033333
11.868821 13.914902 9.965062 -179.495500 -41.811549 179.079582 2.292725 -12.263792 60.326130 -21.549894 -17.746887 -129.941972 12.156255 -15.405430 145.768695 -15.592594 -0.418066 -8.904940 0.000000 0.000000 0.000000 8.905098 -9.037107 58.166403 -31.024109 -16.762232 -32.306242 6.070933 9.818357 61.366504 18.954180 4.704190 -11.389188 0.000000 0.000000 0.000000 7.401853 -7.619207 61.169986 -6.557122 -10.468869 27.628955 2.750225 2.425400 -0.141845 0.015489 0.045466 -0.082906 2.826224 4.207665 11.369417 9.999521 0.580395 -8.798798 0.000000 0.000000 0.000000 4.379218 5.150851 7.368778 -14.025876 13.038354 -9.566490 -11.982649 -31.268794 -33.719551 -175.034977 -66.281774 -148.699543 0.000000 0.000000 0.000000 -0.718574 6.863039 5.270166 5.553851 -4.652137 -18.803779 3.028265 35.462994 -44.835305 -164.706187 67.110707 -163.015073 0.000000 0.000000 0.000000 
11.873545 13.917566 9.934374 -179.490541 -41.853623 179.056414 2.352552 -12.237817 60.248293 -21.497805 -17.779093 -129.792541 11.954230 -15.391099 145.728465 -15.648124 -0.528759 -8.755783 0.000000 0.000000 0.000000 8.983338 -9.017903 58.123004 -30.972176 -16.768574 -32.100062 5.986554 9.777267 61.284480 19.001924 4.660361 -11.445822 0.000000 0.000000 0.000000 7.461293 -7.628678 61.236443 -6.546706 -10.551590 27.578970 2.688587 2.425486 -0.053693 0.000209 0.059992 -0.081229 2.751779 4.170462 11.450571 9.953570 0.562015 -8.707946 0.000000 0.000000 0.000000 4.302775 5.125251 7.442983 -14.009721 13.004478 -9.520618 -11.967320 -31.159316 -33.623013 -175.256247 -66.519923 -148.587815 0.000000 0.000000 0.000000 -0.789182 6.842071 5.355349 5.516255 -4.686119 -18.894950 2.809494 35.505243 -45.023886 -165.132527 67.549703 -163.549877 0.000000 0.000000 0.000000 
11.891940 13.919135 9.898388 -179.454246 -41.899184 178.933321 2.410143 -12.178634 60.285340 -21.461508 -17.822163 -129.675390 11.647801 -15.397159 145.730378 -15.709411 -0.699294 -8.634581 0.000000 0.000000 0.000000 9.049745 -9.044516 58.178629 -30.883718 -16.844408 -31.930086 5.885483 9.740225 61.243144 19.110526 4.653069 -11.542215 0.000000 0.000000 0.000000 7.500151 -7.641393 61.464845 -6.550040 -10.618694 27.470649 2.633010 2.400548 0.004086 -0.006194 0.051838 -0.085620 2.698991 4.200814 11.523274 9.927574 0.560263 -8.484744 0.000000 0.000000 0.000000 4.220955 5.137272 7.456722 -13.980022 12.919238 -9.515067 -11.971955 -30.984036 -33.434210 -175.188956 -66.705533 -148.736057 0.000000 0.000000 0.000000 -0.828925 6.818720 5.415188 5.571449 -4.648372 -18.941776 2.849957 35.662839 -45.098797 -165.712465 68.032454 -164.255108 0.000000 0.000000 0.000000 
11.920263 13.916867 9.865814 -179.441746 -42.045733 178.974329 2.401294 -12.263162 60.280921 -21.392473 -17.798850 -129.737818 11.351574 -15.457565 145.760881 -15.817393 -0.861103 -8.613449 0.000000 0.000000 0.000000 9.086348 -9.089004 58.204099 -30.756677 -17.000848 -31.905327 5.755083 9.534457 61.190859 19.271225 4.692246 -11.611753 0.000000 0.000000 0.000000 7.499818 -7.719977 61.588034 -6.479081 -10.597370 27.289828 2.617109 2.450572 0.095936 0.046103 0.092283 -0.063181 2.592013 4.181870 11.567420 9.921218 0.389531 -8.504018 0.000000 0.000000 0.000000 4.099723 5.054416 7.531055 -13.954292 12.728279 -9.554400 -11.882025 -30.663103 -33.369518 -175.258870 -66.721645 -148.750974 0.000000 0.000000 0.000000 -0.942041 6.745497 5.446016 5.664669 -4.785434 -19.028299 2.935426 35.985497 -45.307517 -165.991601 68.350598 -164.693210 0.000000 0.000000 0.000000 
11.941142 13.910989 9.846836 -179.399044 -42.058136 178.960573 2.442709 -12.210351 60.325467 -21.326559 -17.742216 -129.787951 11.224455 -15.502547 145.836546 -15.959984 -0.975275 -8.671993 0.000000 0.000000 0.000000 9.104911 -9.046647 58.212002 -30.674769 -17.156187 -31.872149 5.664103 9.408470 61.087996 19.389831 4.754566 -11.579834 0.000000 0.000000 0.000000 7.561891 -7.725614 61.816361 -6.527838 -10.768520 27.132226 2.567147 2.428990 0.148058 -0.012253 0.105539 -0.091299 2.604589 4.176910 11.637067 9.823921 0.500857 -8.374710 0.000000 0.000000 0.000000 4.145092 5.094420 7.572151 -13.865963 12.598724 -9.379635 -11.616075 -30.290769 -33.339297 -175.341761 -66.671771 -148.744199 0.000000 0.000000 0.000000 -0.900626 6.779903 5.529064 5.762237 -4.733861 -19.180880 3.127254 36.284615 -45.555060 -166.720574 68.575222 -165.584057 0.000000 0.000000 0.000000 
11.947794 13.904364 9.842737 -179.344635 -42.058758 178.797386 2.491418 -12.083374 60.396112 -21.251194 -17.673868 -129.744730 11.287822 -15.525039 145.903714 -16.094837 -1.025160 -8.758462 0.000000 0.000000 0.000000 9.104086 -9.007786 58.291669 -30.634693 -17.243137 -31.731348 5.623572 9.388260 61.054166 19.448709 4.832618 -11.604914 0.000000 0.000000 0.000000 7.543184 -7.745594 62.125645 -6.534072 -10.885412 26.959440 2.580916 2.396818 0.159011 0.005776 0.066108 -0.097276 2.613562 4.201396 11.738898 9.844046 0.532249 -8.105183 0.000000 0.000000 0.000000 4.143012 5.157476 7.604036 -13.776457 12.374553 -9.268872 -11.539096 -29.964340 -33.215777 -175.034485 -66.560535 -149.129831 0.000000 0.000000 0.000000 -0.877060 6.839992 5.578379 5.818518 -4.647134 -19.135190 3.209887 36.585956 -46.029335 -167.298462 68.834366 -166.342837 0.000000 0.000000 0.000000 
11.938217 13.899350 9.844364 -179.356096 -42.044858 178.932255 2.556672 -11.958072 60.288167 -21.154400 -17.578784 -129.775589 11.471048 -15.542080 145.863047 -16.257032 -1.050832 -8.840065 0.000000 0.000000 0.000000 9.174143 -8.819802 58.226789 -30.650508 -17.237208 -31.597961 5.584574 9.175508 60.961255 19.364956 4.900835 -11.636233 0.000000 0.000000 0.000000 7.602016 -7.728831 62.153335 -6.542383 -11.021822 26.763927 2.609237 2.553795 0.218329 0.010947 0.040149 -0.091538 2.633103 4.148073 11.796282 9.832774 0.519153 -8.115574 0.000000 0.000000 0.000000 4.189964 5.152708 7.690060 -13.736804 12.072244 -9.160842 -11.474871 -29.630293 -33.332170 -175.150052 -66.358218 -149.109313 0.000000 0.000000 0.000000 -0.860202 6.824264 5.597929 5.854895 -4.756885 -19.152586 2.989804 36.777966 -46.756760 -167.628251 68.973170 -166.846522 0.000000 0.000000 0.000000 
11.916207 13.893937 9.839047 -179.380835 -42.000244 178.958196 2.649109 -11.798961 60.216614 -21.084130 -17.529127 -129.647372 11.643335 -15.507060 145.810113 -16.403934 -1.049025 -8.828302 0.000000 0.000000 0.000000 9.220920 -8.660571 58.177769 -30.701823 -17.165324 -31.297248 5.584708 9.098937 60.797194 19.228132 4.940373 -11.689850 0.000000 0.000000 0.000000 7.691990 -7.735353 62.276210 -6.549136 -11.128472 26.583492 2.654203 2.589239 0.267419 0.008369 0.039275 -0.090485 2.669601 4.170145 11.819994 9.831871 0.480705 -8.001839 0.000000 0.000000 0.000000 4.237277 5.198411 7.720318 -13.706772 11.742648 -9.009568 -11.538875 -29.350679 -33.578596 -175.130517 -66.251018 -149.248075 0.000000 0.000000 0.000000 -0.829610 6.847010 5.596700 5.871018 -4.800762 -19.063540 2.647739 36.887898 -47.488724 -168.117593 69.204829 -167.477850 0.000000 0.000000 0.000000 
11.895147 13.887301 9.834647 -179.430709 -41.916659 178.909401 2.722673 -11.701795 60.166863 -21.045824 -17.500888 -129.403876 11.740014 -15.434696 145.766373 -16.568371 -1.010997 -8.721909 0.000000 0.000000 0.000000 9.195328 -8.584225 58.077542 -30.778075 -17.038380 -30.898328 5.645451 9.121899 60.527060 19.099880 4.960024 -11.739838 0.000000 0.000000 0.000000 7.791718 -7.799380 62.451609 -6.549430 -11.193008 26.403459 2.699089 2.497502 0.319419 -0.008122 0.059706 -0.105409 2.699329 4.265652 11.836983 9.845781 0.405432 -7.789213 0.000000 0.000000 0.000000 4.286542 5.276764 7.702940 -13.701649 11.406614 -8.747156 -11.565639 -29.095725 -34.154661 -175.248761 -66.254843 -149.311009 0.000000 0.000000 0.000000 -0.801287 6.928338 5.615950 5.863359 -4.746002 -18.869899 2.171998 36.915325 -48.233000 -168.731764 69.435498 -168.187780 0.000000 0.000000 0.000000 
